<?xml version="1.0" encoding="iso-8859-1"?>
<!-- Generator: Adobe Illustrator 18.1.1, SVG Export Plug-In . SVG Version: 6.00 Build 0)  -->
<svg version="1.1" id="Capa_1" xmlns="http://www.w3.org/2000/svg" xmlns:xlink="http://www.w3.org/1999/xlink" x="0px" y="0px"
	 viewBox="0 0 266.006 266.006" style="enable-background:new 0 0 266.006 266.006;" xml:space="preserve">
<g>
	<g>
		<path style="fill:#030104;" d="M248.087,230.27h-14.311v-45.838h13.165c3.782,0,6.873-3.09,6.873-6.877
			c0-3.785-3.091-6.873-6.873-6.873h-13.165v-8.383l-7.094-9.062l-7.068,9.062v8.383h-25.376v-8.383l-3.007-3.843
			c-1.777-0.239-3.384-0.629-4.728-1.155c-0.656-0.257-1.289-0.518-1.92-0.779l-4.505,5.777v8.383h-5.592
			c-0.721,0.741-1.686,1.219-2.912,1.219c-3.662,0-28.654-0.203-36.943-0.203c-8.289,0.002-4.388-0.16-8.289,0
			c-2.185,0.092-4.012-0.228-5.392-1.016h-6.357v-8.383l-7.092-9.062l-7.07,9.062v8.383H78.782v-8.383l-7.094-9.062l-7.069,9.062
			v8.383H42.684v-8.383l-7.094-9.062l-7.069,9.062v8.383H17.919c-3.782,0-6.873,3.088-6.873,6.873c0,3.787,3.091,6.877,6.873,6.877
			h10.603v45.838H17.919c-3.782,0-6.873,3.092-6.873,6.877c0,3.783,3.091,6.873,6.873,6.873h10.603v16.256
			c0,3.151,3.188,5.73,7.082,5.73c3.893,0,7.081-2.579,7.081-5.73v-16.256H64.62v16.256c0,3.151,3.188,5.73,7.082,5.73
			s7.081-2.579,7.081-5.73v-16.256h21.65v16.256c0,3.151,3.188,5.73,7.082,5.73s7.081-2.579,7.081-5.73v-16.256h24.801v17.143
			c0,2.665,3.188,4.844,7.082,4.844s7.08-2.179,7.08-4.844v-17.143h26.521v16.256c0,3.151,3.185,5.73,7.078,5.73
			c3.895,0,7.081-2.579,7.081-5.73v-16.256h25.376v16.256c0,3.151,3.187,5.73,7.08,5.73c3.895,0,7.082-2.579,7.082-5.73v-16.256
			h14.311c3.782,0,6.873-3.09,6.873-6.873C254.96,233.359,251.869,230.27,248.087,230.27z M64.62,230.27H42.685v-45.838H64.62
			V230.27z M100.432,230.27h-21.65v-45.838h21.65V230.27z M139.396,230.27h-24.801v-45.838h24.801V230.27z M180.079,230.27h-26.521
			v-45.838h26.521V230.27z M219.614,230.27h-25.375v-45.838h25.375V230.27z"/>
		<path style="fill:#030104;" d="M142.34,169.016c-0.05-0.462-0.177-0.875-0.294-1.147c-0.124-0.286-0.227-0.361-0.246-0.428
			c-0.006-0.033,0.064-0.078,0.187-0.043c0.118,0.032,0.247,0.131,0.365,0.273c0.236,0.283,0.44,0.746,0.501,1.288
			c0.066,0.541-0.053,1.052-0.238,1.366c-0.107,0.188-0.22,0.3-0.307,0.355h2.105c0.015-0.036,0.029-0.063,0.043-0.102
			c0.23-0.606,0.398-1.529,0.327-2.545c-0.034-0.506-0.124-0.979-0.261-1.371c-0.133-0.394-0.332-0.686-0.527-0.779
			c-0.194-0.102-0.422-0.021-0.573,0.053c-0.156,0.072-0.252,0.122-0.286,0.086c-0.031-0.033,0.006-0.152,0.139-0.314
			c0.123-0.145,0.404-0.412,0.85-0.313c0.436,0.112,0.749,0.542,0.947,1.001c0.205,0.467,0.322,1.01,0.36,1.584
			c0.078,1.078-0.16,2.056-0.503,2.701h1.537h0.188c-0.051-0.075-0.1-0.151-0.131-0.232c-0.154-0.385-0.291-0.869-0.355-1.43
			c-0.061-0.557-0.068-1.2,0.155-1.864c0.112-0.325,0.288-0.636,0.526-0.87c0.233-0.238,0.521-0.383,0.792-0.456
			c0.397-0.099,0.756-0.073,1.063-0.009v-0.001c0.039-0.974,0.543-5.601,0.953-11.563c0.478-6.713,0.824-16.013,0.883-26.292
			c-0.012-10.283,0.172-19.603,0.237-26.336c0.057-6.737,0-10.906,0.1-10.909c0.081-0.002,0.301,4.162,0.361,10.909
			c0.053,6.748,0.427,15.757,0.438,26.047c-0.059,10.294-0.963,19.906-1.561,26.624c-0.518,5.977-1.16,10.594-1.354,11.533
			c0.094,0.021,0.184,0.047,0.266,0.071c0.733,0.245,1.102,0.562,1.071,0.642c-0.034,0.103-0.476-0.044-1.163-0.141
			c-0.342-0.043-0.752-0.064-1.139,0.067c-0.385,0.128-0.701,0.447-0.867,0.942c-0.168,0.494-0.192,1.048-0.166,1.544
			c0.025,0.499,0.104,0.95,0.191,1.319c0.032,0.142,0.104,0.275,0.189,0.404h10.954c0.223-0.767,0.318-1.809-0.091-2.781
			c-0.235-0.559-0.617-0.982-1.045-1.197c-0.428-0.221-0.882-0.244-1.256-0.196c-0.764,0.112-1.229,0.386-1.277,0.284
			c-0.014,0.012-0.198-0.212-0.418-0.719c-0.227-0.504-0.465-1.293-0.737-2.302l-0.11-0.384c-0.018-0.062-0.053-0.128-0.061-0.229
			l-0.028-0.216c-0.042-0.29-0.075-0.597-0.11-0.917c-0.065-0.643-0.123-1.342-0.154-2.098c-0.064-1.507-0.045-3.228,0.102-5.119
			c0.282-3.787,1.107-8.229,2.306-13.052c1.175-4.829,4.275-19.553,4.894-31.974c0.188-4.976-0.762-24.944-0.65-24.967
			c0.062-0.029,1.323,4.489,1.904,12.047c0.295,3.771,0.43,8.284,0.275,13.287c-0.082,2.502-0.232,5.125-0.48,7.835
			c-0.205,2.723-0.723,5.518-1.332,8.322c-1.255,5.616-2.828,10.825-4.033,15.627c-1.223,4.793-2.086,9.182-2.424,12.922
			c-0.174,1.866-0.225,3.566-0.197,5.058c0.015,0.745,0.053,1.438,0.102,2.074c0.023,0.319,0.049,0.622,0.078,0.913l0.021,0.213
			c-0.001,0.045,0.026,0.109,0.043,0.183l0.1,0.396c0.236,1.023,0.432,1.807,0.615,2.32c0.148,0.437,0.275,0.679,0.296,0.753
			c0.028-0.113,0.406-0.511,1.19-0.761c0.422-0.126,0.994-0.168,1.577,0.084c0.581,0.244,1.108,0.803,1.401,1.505
			c0.299,0.702,0.357,1.452,0.285,2.095c-0.042,0.369-0.132,0.694-0.238,0.992h15.842c2.886-2.967,1.789-10.221-2.747-8.597
			c-3.586,1.285-5.227,1.396-5.726,1.111c-0.415-0.236-0.041-0.747,0.663-1.082c0,0,3.739-0.898,8.771-6.802
			c0.529-0.621,1.152-1.279,1.844-1.965c2.272,0.998,4.686,2.096,7.292,3.174l2.562-3.285l4.086,5.22
			c11.276,1.521,29.655-3.229,34.774-20.495c6.619-22.321-4.15-49.705-21.067-65.754c-21.066-19.984-30.942-30.298-17.775-42.547
			l6.584-6.447c0,0-4.999-6.178-15.801,3.223c-17.777,15.473-7.243,35.456,15.801,54.151c19.476,15.801,33.576,41.259,19.751,61.887
			c-5.927,8.842-20.659,8.227-31.411,6.462c5.75-5.07,12.623-10.851,14.652-15.567c2.96-6.886-0.863-22.979-5.6-25.274
			s-11.077-1.442-13.15,4.79c0,0-5.795,14.885-5.795,11.277c0-3.607,2.068-21.641,1.479-29.183
			c-0.594-7.541-13.619-24.263-18.949-32.46c-5.328-8.198-15.215-22.849-13.734-30.718c0.027-0.147,0.049-0.292,0.068-0.435
			c5.211-2.348,11.894-5.625,13.297-7.567c0.455-0.628,0.758-1.348,0.945-2.104c1.91-0.241,4.053-0.374,6.312-0.38
			c4.299-0.021,8.195,0.336,10.997,0.681c2.809,0.337,4.502,0.741,4.561,0.58c0.066-0.171-1.592-0.902-4.412-1.474
			c-2.811-0.582-6.76-1.091-11.152-1.07c-2.163,0.004-4.233,0.162-6.104,0.444l0.002-0.007l-0.129,0.027
			c-1.871,0.292-3.537,0.709-4.889,1.233c-0.788,0.295-1.465,0.622-2.02,0.943c-1.416,0.543-2.354,0.92-2.395,0.831
			c-0.059-0.117,2.126-1.339,5.043-2.356c1.458-0.503,2.829-0.829,3.842-0.94c0.206-0.025,0.396-0.041,0.568-0.05
			c0.01-0.156,0.015-0.313,0.018-0.469c2.268-0.306,5.078-0.538,8.133-0.67c3.863-0.171,7.378-0.221,9.927-0.33
			c2.546-0.104,4.127-0.259,4.126-0.439c0-0.176-1.573-0.337-4.123-0.47c-2.549-0.123-6.077-0.217-9.988-0.044
			c-3.904,0.169-7.45,0.645-9.949,1.325c-2.512,0.662-3.916,1.51-3.838,1.662c0.004,0.009,0.014,0.018,0.027,0.022
			c-2.357,1.053-4.002,2.059-4.064,1.973c-0.039-0.056,0.461-0.504,1.374-1.079c0.912-0.576,2.228-1.279,3.747-1.904
			c0.436-0.179,0.864-0.342,1.279-0.489c0.525-0.126,1.153-0.293,1.864-0.498l1.01-0.294l0.009-0.001l0.402-0.065l-0.006-0.056
			c2.01-0.607,4.466-1.404,7.135-2.163c3.336-0.955,6.402-1.556,8.649-1.799c2.249-0.261,3.666-0.254,3.682-0.448
			c0.015-0.159-1.402-0.491-3.738-0.459c-2.333,0.016-5.544,0.498-8.94,1.471c-2.641,0.751-5.021,1.612-6.949,2.352l-0.057-0.266
			c-1,0.372-2.329,0.947-3.773,1.633c-2.977,1.427-5.356,2.68-5.432,2.544c-0.065-0.114,2.205-1.569,5.211-3.01
			c1.471-0.699,2.855-1.24,3.908-1.532c-0.349-1.373-0.884-2.455-1.34-2.833c-1.185-0.983,1.543-13.064,0.295-13.771
			c-1.246-0.707-7.4,6.885-8.879,7.213l0,0c0,0-8.291-5.9-22.798,1.313c0,0-10.097-6.52-10.954-5.903
			c-0.856,0.618,2.665,10.494,2.665,11.478c0,0.465-0.381,1.771-0.467,3.433c-0.918-0.188-1.873-0.361-2.86-0.51
			c-3.88-0.596-7.463-0.671-10.031-0.431c-2.575,0.23-4.11,0.715-4.079,0.874c0.033,0.191,1.598,0.027,4.117,0.033
			c2.52-0.004,5.994,0.21,9.8,0.795c1.052,0.159,2.073,0.334,3.051,0.518l0.018,0.274c-1.171-0.286-2.412-0.541-3.704-0.742
			c-4.189-0.665-8.063-0.541-10.799-0.172c-2.745,0.364-4.382,0.868-4.353,1.029c0.033,0.189,1.72,0.002,4.432-0.124
			c2.707-0.131,6.451-0.11,10.523,0.537c1.429,0.222,2.8,0.495,4.093,0.791c0.083,0.381,0.191,0.766,0.332,1.152
			c-0.874-0.147-1.782-0.276-2.719-0.376c-3.932-0.429-7.52-0.154-10.055,0.189c-2.542,0.348-4.083,0.724-4.062,0.895
			c0.021,0.182,1.605,0.125,4.142,0.01c2.536-0.11,6.024-0.234,9.839,0.184c1.213,0.13,2.386,0.295,3.502,0.476
			c0.161,0.273,0.339,0.543,0.54,0.812c2.272,3.019,10.427,7.117,15.571,9.156c-0.43,1.715-1.249,4.129-2.76,7.477
			c-4.145,9.181-13.767,22.415-9.62,31.596c4.145,9.181,13.716,38.719,13.418,45.277c-0.295,6.557-0.472,1.696-3.137-2.566
			c-2.666-4.261-10.674-8.495-14.228-5.87c-3.553,2.623-11.292,15.69-7.741,22.247c3.552,6.558,19.044,21.397,21.162,25.183
			c6.021,10.756-2.433,4.775-5.69,4.119c-3.255-0.655-4.8,2.033-4.207,5.967c0.308,2.045,1.275,3.445,2.767,4.297h21.228
			C142.134,170.538,142.47,169.906,142.34,169.016z M151.06,167.441c-0.043,0.06-0.213-0.004-0.449-0.021
			c-0.233-0.021-0.547,0.04-0.786,0.267c-0.502,0.467-0.271,1.2-0.411,1.236c-0.059,0.025-0.209-0.107-0.294-0.415
			c-0.09-0.296-0.045-0.831,0.353-1.196c0.389-0.376,0.943-0.387,1.234-0.244C151.008,167.204,151.101,167.391,151.06,167.441z
			 M154.872,168.038c0.234,0.127,0.445,0.445,0.52,0.799c0.149,0.716-0.087,1.248-0.215,1.224l-0.001,0.001
			c-0.151-0.018-0.163-0.547-0.286-1.109c-0.063-0.28-0.155-0.494-0.254-0.635c-0.098-0.145-0.203-0.234-0.18-0.309
			C154.471,167.948,154.639,167.91,154.872,168.038z M171.595,164.369c0.512,0.102,1.085,0.628,1.357,1.315
			c0.571,1.401,0.148,2.609,0.021,2.553c-0.145-0.019,0.004-1.146-0.497-2.35c-0.244-0.596-0.634-1.01-1-1.174
			c-0.365-0.166-0.655-0.156-0.664-0.236C170.798,164.421,171.085,164.261,171.595,164.369z M169.394,165.699
			c0.359,0.163,0.827,0.53,1.074,1.121c0.265,0.589,0.141,1.236-0.083,1.571c-0.224,0.348-0.451,0.46-0.497,0.414
			c-0.124-0.08,0.527-0.848,0.105-1.786c-0.19-0.454-0.525-0.794-0.789-1.009c-0.266-0.216-0.469-0.32-0.447-0.395
			C168.769,165.553,169.025,165.535,169.394,165.699z M118.229,14.729c0.941-0.393,1.829-0.606,2.661-0.681
			c-0.511,0.654-1.467,1.975-1.439,2.643C117.971,16.035,117.051,15.179,118.229,14.729z M120.31,18.786
			c2.461,0.876,4.3,1.935,4.24,2.056c-0.066,0.134-1.989-0.705-4.412-1.571c-2.418-0.894-4.459-1.3-4.445-1.433
			C115.702,17.685,117.853,17.878,120.31,18.786z M119.169,22.535c-2.259-0.794-4.16-1.109-4.151-1.244
			c0.004-0.066,0.503-0.092,1.295,0.013c0.792,0.102,1.869,0.357,3.019,0.741c2.29,0.787,4.056,1.605,4.016,1.725
			C123.297,23.919,121.43,23.311,119.169,22.535z M124.922,22.986c-1.01-0.491-2.447-1.077-4.08-1.604l-0.677-0.209
			c-1.339-0.515-2.956-1.08-4.778-1.592c0.961,0.116,3.137,0.533,5.614,1.311c1.658,0.532,3.106,1.188,4.091,1.772
			c0.988,0.58,1.52,1.052,1.485,1.104C126.533,23.832,125.933,23.471,124.922,22.986z M128.019,17.767
			c-0.977-0.19-2.773-0.451-4.396-0.226c-0.536,0.076-1.219,0.015-1.927-0.13l0.028-0.095c0.121-0.535,0.615-2.412,0.358-3.287
			c3.564,0.229,5.905,2.91,6.638,3.878l0.032,0.019l-0.021-0.004c0.156,0.208,0.236,0.333,0.236,0.333
			C128.644,18.083,128.328,17.92,128.019,17.767z M121.417,164.185c-0.523,0.759-0.592,1.664-0.448,2.246
			c0.13,0.599,0.417,0.9,0.355,0.959c-0.029,0.047-0.449-0.182-0.705-0.854c-0.265-0.65-0.254-1.734,0.372-2.643
			c0.305-0.453,0.728-0.788,1.155-0.986s0.853-0.262,1.196-0.268c0.696-0.006,1.083,0.191,1.07,0.245
			c-0.012,0.083-0.424,0.023-1.041,0.118C122.764,163.085,121.93,163.41,121.417,164.185z M126.238,164.622
			c-0.302,0.207-0.692,0.572-1.042,1.032c-0.352,0.46-0.585,0.929-0.666,1.282c-0.094,0.353-0.044,0.59-0.116,0.618l0,0
			c-0.056,0.033-0.255-0.204-0.248-0.663c0-0.451,0.222-1.035,0.619-1.549c0.395-0.516,0.872-0.885,1.287-1.045
			c0.207-0.08,0.404-0.104,0.538-0.068c0.138,0.035,0.187,0.107,0.169,0.135C126.738,164.421,126.544,164.401,126.238,164.622z
			 M148.632,14.429c0.445,0.015,0.792,0.073,0.981,0.155c0.214,0.042,0.259,0.062,0.073,0.039c0.219,0.139,0.004,0.331-0.919,0.497
			c-1.408,0.254-2.994,1.635-4.491,2.604c-0.249-1.013-1.473-2.493-2.084-3.185C144.261,13.998,147.07,14.221,148.632,14.429z
			 M139.585,16.411c0.023-0.077,0.104-0.156,0.235-0.238c0.249-0.551,0.718-0.959,1.324-1.255c-0.114,1.085,0.463,3.022,0.735,3.814
			c-1.6,0.211-2.098-0.719-2.247-1.463l-0.009,0.001v-0.045C139.544,16.779,139.585,16.411,139.585,16.411z M133.444,19.66
			c0.35-0.482,2,0.192,2,0.192c0.348,0.193,0,1.155-0.783,1.733C133.878,22.161,133.098,20.141,133.444,19.66z M136.002,166.731
			c-0.39,0.407-0.571,0.863-0.579,1.216c-0.016,0.357,0.07,0.601,0,0.634c-0.053,0.032-0.271-0.153-0.365-0.604
			c-0.104-0.448,0.099-1.122,0.566-1.599c0.931-0.983,2.107-1.037,2.094-0.873C137.739,165.628,136.788,165.892,136.002,166.731z
			 M139.622,167.892c-0.111,0.094-0.203,0.222-0.265,0.438c-0.124,0.437-0.086,0.902-0.232,0.935
			c-0.117,0.046-0.434-0.405-0.264-1.081c0.083-0.334,0.384-0.604,0.626-0.629c0.237-0.037,0.361,0.051,0.359,0.114
			C139.847,167.743,139.732,167.8,139.622,167.892z M138.396,164.597c-0.442-0.094-0.978-0.132-1.551-0.021
			c-0.571,0.11-1.181,0.379-1.699,0.833c-0.519,0.452-0.877,1.047-1.044,1.645c-0.168,0.598-0.146,1.186-0.056,1.664
			c0.198,0.965,0.561,1.514,0.471,1.576c-0.051,0.053-0.559-0.376-0.914-1.438c-0.166-0.527-0.252-1.235-0.078-1.983
			c0.166-0.743,0.596-1.49,1.217-2.03c0.621-0.543,1.346-0.835,2.014-0.925c0.672-0.091,1.279,0.013,1.756,0.185
			c0.955,0.357,1.381,0.883,1.336,0.946C139.79,165.145,139.28,164.794,138.396,164.597z M140.642,163.328
			c-0.337,1.845-0.687,2.819-0.717,2.806c-0.055-0.016,0.211-1.014,0.465-2.855c0.262-1.843,0.467-4.541,0.357-7.875
			c-0.1-3.332-0.505-7.289-1.222-11.635c-0.711-4.346-2.704-8.544-3.899-13.475c-2.494-9.889-2.305-19.737-2.531-26.43
			c-0.216-6.705-0.052-10.85,0.019-10.85c0.107-0.001,0.109,4.147,0.441,10.828c0.344,6.667,1.191,15.903,3.672,25.734
			c1.198,4.944,2.207,9.698,2.889,14.076c0.688,4.379,1.05,8.373,1.091,11.74C141.258,158.757,140.98,161.482,140.642,163.328z
			 M141.403,96.291c0.066-0.022,1.017,3.771,1.516,10.074c0.258,3.146,0.408,6.903,0.508,11.07l0.171,6.53
			c0.058,2.266,0.212,4.594,0.292,7.011c0.15,4.82,0.093,9.053-0.032,13.22l-0.421,11.418c-0.211,6.294-0.16,10.189-0.256,10.191
			c-0.085,0.006-0.033-9.719,0.061-16.027C143.548,128.811,141.294,96.316,141.403,96.291z"/>
		<path style="fill:#030104;" d="M142.178,170.718c0.021,0.019,0.07,0.002,0.13-0.037h-0.129
			C142.181,170.689,142.173,170.713,142.178,170.718z"/>
		<path style="fill:#030104;" d="M144.026,171.597c0.043,0.072,0.457-0.131,0.838-0.779c0.023-0.04,0.042-0.094,0.064-0.137h-0.516
			C144.198,171.222,143.966,171.52,144.026,171.597z"/>
		<path style="fill:#030104;" d="M148.23,171.648c0,0-0.719-0.412-1.084-0.967h-0.492
			C147.097,171.327,148.178,171.725,148.23,171.648z"/>
		<path style="fill:#030104;" d="M157.971,171.067c-0.311,0.791-1.736-0.058-1.663,0.021c0.051,0.064,1.607,1.037,2.072,0.212
			c0.097-0.178,0.186-0.393,0.266-0.618H158.1C158.06,170.817,158.017,170.949,157.971,171.067z"/>
	</g>
</g>
<g>
</g>
<g>
</g>
<g>
</g>
<g>
</g>
<g>
</g>
<g>
</g>
<g>
</g>
<g>
</g>
<g>
</g>
<g>
</g>
<g>
</g>
<g>
</g>
<g>
</g>
<g>
</g>
<g>
</g>
</svg>
