<?xml version="1.0" encoding="iso-8859-1"?>
<!-- Generator: Adobe Illustrator 16.0.0, SVG Export Plug-In . SVG Version: 6.00 Build 0)  -->
<!DOCTYPE svg PUBLIC "-//W3C//DTD SVG 1.1//EN" "http://www.w3.org/Graphics/SVG/1.1/DTD/svg11.dtd">
<svg version="1.1" id="Capa_1" xmlns="http://www.w3.org/2000/svg" xmlns:xlink="http://www.w3.org/1999/xlink" x="0px" y="0px"
	 width="548.426px" height="548.426px" viewBox="0 0 548.426 548.426" style="enable-background:new 0 0 548.426 548.426;"
	 xml:space="preserve">
<g>
	<g>
		<path d="M101.91,153.62c-2.755-1.836-6.12-0.918-8.568,1.224c-2.142,1.836-5.202,2.448-7.956,2.448
			c-1.836,0-3.06,0.612-4.284,1.53c-4.59,0-9.485,5.202-6.12,9.486c3.061,4.284,6.12,8.262,9.486,12.24
			c0.612,0.918,1.53,1.224,2.448,1.224c3.365,3.672,8.567,0.918,10.403-3.06c2.448-5.814,5.202-11.628,7.65-17.442
			C106.193,158.822,104.357,155.15,101.91,153.62z"/>
		<path d="M445.241,148.724c-5.508-1.53-14.688-1.836-18.972,2.754c-5.202-0.612-10.71,4.59-7.038,9.486
			c0.306,0.612,0.612,0.918,1.224,1.224l0,0c0,0.306,0.307,0.306,0.612,0.306c3.06,3.672,6.426,6.12,10.71,8.568
			c2.143,1.224,5.508,0.918,7.344-0.918c3.366-3.366,6.12-7.344,9.181-11.016C450.749,155.762,450.443,149.948,445.241,148.724z"/>
		<path d="M53.561,126.998c-11.628,2.754-13.77,17.442-6.426,25.704c2.142,2.448,5.508-0.612,4.284-3.366
			c-1.836-4.284-0.307-11.016,3.672-13.77c5.813-3.366,9.792,3.672,8.568,8.568c-0.918,3.978,4.283,6.12,6.426,2.754
			C76.206,136.79,63.66,124.55,53.561,126.998z"/>
		<path d="M130.979,123.326c-10.403-2.754-20.502,6.12-20.502,16.524c0,3.672,5.202,3.672,5.814,0
			c0.918-7.038,10.403-12.546,16.218-7.344c2.142,1.836,3.366,4.896,3.366,7.956c0,2.754-1.53,4.59,0,7.344
			c0.918,1.224,2.142,1.53,3.672,1.53c0.306,0,0.612,0,0.918,0c1.53-0.306,2.448-1.53,2.754-2.754
			C145.973,136.79,140.771,125.468,130.979,123.326z"/>
		<path d="M419.843,121.796c-3.366-4.896-9.486-7.344-15.3-5.508c-11.935,3.672-14.076,19.584-4.284,26.622
			c4.284,3.06,8.567-3.366,5.508-7.038c-2.142-2.448-1.53-9.18,1.836-10.71c2.448-0.918,5.202,0.612,6.732,2.448
			c2.142,2.142,2.142,5.202,2.447,7.956c0.307,1.836,2.754,2.142,3.672,0.918C424.739,132.506,422.903,126.08,419.843,121.796z"/>
		<path d="M481.655,118.124c-2.142-5.202-7.038-9.18-12.852-9.486c-5.814-0.306-11.322,3.672-13.771,8.874
			c-2.754,5.814-1.836,11.016,0.918,16.83c1.225,2.754,4.896,0.612,4.59-1.836c-0.611-4.284,2.143-12.853,7.345-13.771
			c1.836-0.306,3.672,1.224,4.896,2.448c1.836,2.142,1.225,3.672,0.612,6.12c-0.306,2.142,1.53,5.202,3.978,3.978
			C482.879,129.14,483.797,123.02,481.655,118.124z"/>
		<path d="M524.801,436.976c4.59-82.926-4.284-167.076-62.118-230.417c8.874-4.59,16.218-11.322,22.644-19.278
			c8.263,3.06,16.524,6.426,25.093,9.792c4.59,1.836,6.426-4.896,3.06-7.344c-6.732-4.896-14.382-8.262-22.644-10.404
			c1.224-2.142,2.754-4.284,3.672-6.426c6.426,0.918,12.546,1.836,18.972,2.448c4.59,0.306,5.508-7.038,0.918-7.956
			c-5.508-1.224-11.016-1.836-16.218-2.754c1.224-3.06,2.447-6.426,3.366-9.792c11.016-1.224,22.338-2.142,33.354-3.978
			c4.896-0.918,3.672-8.874-1.224-8.874c-9.792,0-19.891,1.224-29.988,3.06c4.896-29.682-2.448-61.506-25.398-80.172
			c-3.365-2.754-7.038-0.612-7.649,2.754c-3.672,0.918-7.038,4.59-9.181,7.65c-2.142,3.06-3.06,6.12-3.365,9.486
			c-11.017-3.978-24.48-2.142-36.414,1.836c0,0,0,0,0-0.306c-3.061-4.896-6.12-9.486-9.181-14.382
			c-2.447-4.284-5.508-9.792-10.098-11.934c-3.672-2.142-7.344,1.224-6.731,5.202c0,0.306,0.306,0.612,0.306,0.918
			c-1.836-0.918-4.284-0.612-5.814,1.836c-14.075,22.95-21.42,58.752-17.136,89.352c-11.016-0.612-22.338-0.918-33.354-1.53
			c-4.896-0.306-6.12,7.65-1.225,8.874c12.24,2.448,24.48,3.672,36.72,3.366c0.919,3.06,1.837,6.12,2.755,8.874
			c-4.896,1.224-10.099,2.448-15.301,3.06c-5.201,0.918-3.978,9.792,1.225,9.486c6.426-0.306,12.239-1.53,18.054-3.06
			c0.612,1.53,1.53,2.754,2.448,3.978c-4.59,2.754-9.181,5.814-13.464,9.18c-3.979,3.06-0.612,8.874,3.978,6.732
			c5.202-2.448,10.404-5.202,15.3-8.262c3.061,3.366,6.732,6.426,11.017,8.874c6.731,46.818,8.874,92.411-4.59,138.617
			c-9.486,33.048-29.683,64.566-34.272,99.145c-11.628-1.225-23.256-8.874-29.07-18.36c-7.344-11.628-4.896-24.48-8.874-36.72
			c14.076-51.103,87.822-111.385,38.862-159.12c-27.234-26.316-73.746-8.874-90.27,21.726
			c-12.853-30.294-49.572-48.042-82.926-26.01c-71.604,47.124,30.294,133.416,49.266,186.353c-1.836,8.568-3.06,16.83-9.18,24.48
			c-9.792,12.24-27.234,17.748-41.922,11.628c9.485-77.112-37.944-160.65-52.633-233.784c4.591-3.06,8.568-6.426,11.935-10.404
			c4.896,2.142,9.792,4.284,14.688,6.12c4.284,1.53,7.038-5.202,3.061-7.344c-3.979-2.142-8.263-3.978-12.24-5.814
			c2.142-3.06,3.978-6.426,5.814-9.792c7.649,1.836,15.605,3.672,23.256,5.202c4.896,0.918,6.731-5.814,2.142-7.344
			c-7.038-2.142-14.382-3.978-21.726-5.814c1.529-3.672,2.754-7.344,3.672-11.322c6.426,0.306,12.852,0.306,19.277,0.612
			c5.509,0,5.202-7.956,0-8.262c-5.813-0.612-11.628-0.612-17.441-0.918c5.202-29.07,0.306-62.424-12.546-87.21
			c-2.143-4.284-6.732-3.672-9.486-1.224c-0.918-0.918-2.142-1.224-3.366-0.918c-4.896,1.53-8.567,6.732-11.934,10.404
			c-3.366,3.672-6.426,7.344-9.486,11.016c-16.218-3.978-34.271-3.366-49.878,0.612C69.473,81.71,62.129,71,51.113,68.246
			c-2.754-0.612-5.201,1.53-5.813,3.978c-0.306-2.754-4.59-3.978-6.12-1.224c-15.606,27.54-26.01,59.976-19.584,91.188
			c-1.224,0-2.142,0-3.366,0.306c-5.508,0.612-5.508,7.956,0,8.568c1.836,0.306,3.978,0.306,5.814,0.306
			c0.612,1.836,1.224,3.366,1.836,5.202c1.224,3.672,3.06,6.732,4.896,10.098c-5.202,1.53-10.404,3.366-15.912,4.59
			c-6.426,1.836-3.672,10.71,2.754,9.792c6.732-0.918,13.464-2.754,19.584-4.896c2.447,3.366,5.508,6.12,8.567,9.18
			c-4.896,4.284-9.18,8.874-12.852,13.464c-4.284,4.896,2.142,11.322,7.039,7.038c5.202-4.284,10.403-8.568,15.605-13.158
			c5.508,3.672,11.322,6.732,17.748,8.874c-0.306,0.306-0.612,0.918-0.612,1.53c-7.344,32.13-12.852,61.199-28.764,90.27
			c-0.918,1.53-0.612,2.754,0,3.979c-21.114,42.533-26.928,96.39-13.77,142.289c-4.59-0.306-9.486,0.307-13.77,2.448
			c-8.568,4.284-14.688,13.771-14.382,23.256c0.306,8.568,6.12,15.912,14.688,18.055c5.814,1.529,12.852,0.611,16.83-3.979
			c0.612,0.612,1.224,1.53,1.837,1.836c6.119,4.59,16.829,5.814,22.031-0.918c0.612-0.611,0.918-1.224,0.918-2.142
			c13.158,20.196,50.49,17.441,72.216,16.83c27.234-0.612,44.677-12.853,53.551-38.862c2.142-6.426,3.978-13.158,5.202-19.584
			c15.3,8.262,33.659,6.12,47.124-5.202c12.852-11.016,25.092-35.802,16.523-52.326c-0.306-0.918-1.224-1.224-2.142-1.836
			c-5.202-21.113-17.137-38.25-32.13-56.609c-21.114-25.704-45.9-55.692-28.458-91.8c6.426-13.77,27.846-22.338,42.533-20.502
			c25.093,3.672,39.475,38.25,34.272,60.281c-1.53,6.732,8.262,9.486,10.403,2.754c1.225-3.672,1.836-7.344,2.448-11.016
			c0.918-0.918,1.53-2.143,1.53-3.672c1.836-14.994,27.233-43.758,44.37-45.288c43.452-3.672,40.392,35.19,32.742,57.221
			c-6.427,18.972-19.891,33.66-29.988,50.796c-8.874,14.994-13.771,30.294-14.076,46.513c-9.486,16.218-0.612,42.84,11.016,55.691
			c10.404,11.935,24.48,16.524,38.862,14.076c2.142,54.468,74.052,43.758,118.116,39.78c2.754-0.307,4.284-1.836,4.896-3.672
			c5.202-2.754,8.568-7.956,9.486-13.771c8.874,3.979,18.666-3.672,23.256-12.546c0,0.306,0,0.306,0,0.612
			c2.448,6.731,11.017,6.731,16.83,4.59c6.12-2.143,11.628-7.344,13.158-13.771C550.811,445.544,537.653,433.304,524.801,436.976z
			 M26.327,481.04c-0.918,3.365-0.918,6.731,0,9.792c-3.06,1.836-5.814,3.06-9.486,1.836c-4.59-1.53-6.12-6.12-4.896-10.71
			c1.836-9.181,10.71-12.24,19.278-12.853c0.306,0.612,0.306,1.225,0.612,1.836c0.306,0.612,0.306,0.918,0.612,1.225
			C29.387,474.308,27.245,477.367,26.327,481.04z M63.965,204.11c2.142-1.836,4.59-3.978,6.426-6.12
			c2.754-3.06,0.306-9.18-4.284-7.65c-4.283,1.53-8.567,3.978-12.546,6.732c-2.448-2.142-4.59-4.284-6.731-6.732
			c3.978-2.142,7.649-4.896,11.016-7.956c2.142-1.836,0-5.202-2.754-4.59c-4.59,1.224-9.18,2.754-13.771,4.284
			c-1.836-3.06-3.672-6.732-4.896-10.404c7.956,0,15.912-0.612,23.256-2.448c2.754-0.612,2.754-4.896,0-5.814
			c-8.262-1.836-16.83-2.448-25.704-2.448c-4.896-28.152,3.366-62.118,11.322-88.128c0,0,0,0,0-0.306
			c0,1.224,0.612,2.448,2.448,3.366c7.956,3.672,13.77,9.18,15.912,17.748c-1.225,0.306-2.143,0.612-3.366,0.918
			c-4.59,1.53-2.754,8.262,2.142,7.344c14.076-2.754,27.54-4.284,41.922-2.448c12.853,1.53,23.868,6.426,36.414,9.486
			c5.202,1.224,7.65-5.202,3.366-8.262s-9.18-5.508-14.382-7.344c2.754-2.448,5.813-5.202,8.262-7.956
			c2.143-2.142,4.896-4.59,7.038-7.038c10.098,21.42,14.076,52.632,8.874,79.56c-7.344-0.306-14.382-0.612-21.726-0.612
			c-5.509,0-5.509,8.262,0,8.568c6.426,0.306,13.157,0.612,19.584,1.224c-0.918,3.06-1.53,5.814-2.754,8.568
			c-6.12-1.836-14.688-4.896-19.891-3.672c-3.978,0.918-7.038,6.426-1.224,7.344c0.611,0,1.224-0.306,1.53-0.918
			c4.896,0.306,10.71,2.754,16.218,4.59c-1.53,2.754-3.061,5.508-4.59,7.956c-7.038-3.06-14.076-6.12-21.114-8.874
			c-4.284-1.836-7.344,5.508-3.061,7.344c6.12,3.06,11.935,5.814,18.055,8.568c-11.935,11.628-29.07,17.442-52.938,12.24
			C75.288,209.006,69.473,206.864,63.965,204.11z M165.251,425.96c3.978,2.447,7.649,5.201,11.628,7.649
			c0,1.836,0,3.672-0.306,5.508c-3.366-1.836-6.732-3.672-10.404-5.508c-1.225-0.611-2.143,0.918-0.918,1.53
			c3.672,2.142,7.344,4.284,11.016,6.12c-0.306,2.142-0.306,4.284-0.612,6.426c-2.754-1.53-5.201-3.06-7.649-4.896
			c-0.918-0.612-2.143,0.918-1.225,1.529c2.755,2.143,5.509,3.979,8.568,5.814c-0.306,1.53-0.612,3.366-0.918,4.896
			c-3.366-1.836-6.731-3.672-10.404-5.508c-1.224-0.612-2.447,1.224-1.224,1.836c3.672,2.143,7.038,3.979,10.71,5.814
			c-0.612,2.447-1.224,4.59-2.142,6.731c-3.979-1.836-7.65-3.366-11.322-5.508c-0.918-0.612-2.142,0.918-0.918,1.53
			c3.672,2.142,7.649,4.284,11.628,5.813c-0.918,2.143-2.142,4.59-3.366,6.732c-3.366-1.53-6.731-3.061-9.792-4.59
			c-1.224-0.612-2.142,1.224-0.918,1.836c3.061,1.836,6.426,3.366,9.792,4.59c-1.224,1.836-2.448,3.366-3.672,5.202
			c-3.978-1.836-7.956-3.672-11.628-5.508c-1.224-0.612-2.142,1.224-0.918,1.836c3.978,1.836,7.65,3.672,11.628,5.201
			c-0.918,0.919-1.836,2.143-2.754,3.061c-4.284-1.224-8.568-2.754-12.24-5.508c-0.918-0.612-1.836,0.918-0.918,1.529
			c3.672,2.448,7.65,4.284,11.628,5.202c-1.53,1.225-2.754,2.754-4.284,3.979c-5.508-2.448-11.016-4.59-16.218-6.732
			c-0.918-0.306-1.53,1.225-0.612,1.53c4.896,2.142,10.099,4.284,15.301,6.426c-1.225,0.918-2.754,1.836-3.979,2.754
			c-4.896-1.836-9.485-3.978-14.076-6.12c-0.918-0.611-1.836,0.918-0.918,1.53c4.284,2.448,8.568,4.284,12.853,6.12
			c-2.143,1.224-4.284,2.142-6.426,3.06c-5.202-2.142-10.404-4.283-15.301-7.037c-0.611-0.307-1.224,0.611-0.611,1.224
			c4.283,2.448,8.874,4.59,13.77,6.426c-1.836,0.612-3.672,1.224-5.508,1.836c-5.202-2.142-10.71-3.978-15.912-6.12
			c-0.612-0.306-0.612,0.612-0.306,0.612c4.59,1.836,9.18,3.978,13.77,5.813c-2.142,0.612-4.59,0.919-6.731,1.225
			c-5.202-1.53-10.099-3.672-14.994-5.814c-0.918-0.306-1.836,0.918-0.918,1.53c3.672,2.142,7.344,3.672,11.321,4.896
			c-0.306,0-0.611,0-1.224,0c-4.284-0.307-8.874-0.918-13.158-1.225c-18.972,1.836-18.972-4.59,0.307-19.584
			c7.649-0.611,9.792-11.321,1.836-13.77c-18.36-42.229-10.404-66.402,23.562-72.522c1.225-0.306,1.53-2.142,0-2.448
			c-47.43-9.485-75.888,51.103-46.817,78.337c-10.71,3.06-19.891,8.567-27.234,18.666c-0.612,0.611-0.612,1.529-0.918,2.447
			c-0.612-0.306-1.53-0.611-2.754-0.611c-3.672,0.306-8.874,2.142-11.628-1.53c-2.448-2.754-1.53-6.426,0.918-8.874
			c2.754-2.754,6.12-3.672,9.792-4.284c3.978-0.918,7.344-1.224,11.322-2.754c1.224-0.306,1.836-1.53,1.836-2.448
			c0.918-0.918,1.224-2.447,0.306-4.283c-18.054-40.393-17.442-107.713,12.852-142.902c3.061-3.366-1.529-7.65-4.896-4.896
			c-20.502,16.219-23.562,42.229-26.622,67.015c-3.366,27.233-4.896,56.304,9.486,80.478c-3.366-0.611-7.038-0.611-10.404,0
			c0.306-1.224,0-2.448-1.224-3.06c-1.225-0.612-2.755-1.225-3.979-1.836c-6.732-53.244-3.06-98.532,14.382-150.246
			c0.307-0.612,0.307-1.225,0-1.836c14.688-26.011,26.929-55.998,27.234-85.68c0-0.306,0-0.306,0-0.612
			c4.284,0.918,8.262,1.53,12.546,1.53c9.486,0.306,17.748-0.918,25.398-3.366c3.06,0.918,5.813,2.448,8.262,4.284
			c0.306,1.53,0.611,3.06,0.918,4.59c-3.366-2.142-6.426-3.978-9.792-5.814c-1.225-0.612-2.143,0.918-0.918,1.836
			c3.672,2.754,7.649,5.508,11.628,7.956c0.306,1.53,0.612,2.754,0.918,4.284c-3.366-2.142-6.426-4.284-9.792-6.426
			c-1.224-0.918-2.448,1.224-1.224,2.142c3.978,2.754,7.955,5.508,11.934,7.956c0.612,2.754,1.224,5.508,2.142,8.262
			c-4.59-3.672-8.874-6.732-13.77-9.18c-1.225-0.612-2.448,1.224-1.225,1.836c5.202,3.06,10.404,6.426,15.301,10.098l0,0
			c0.611,2.142,0.918,3.978,1.529,6.12c-2.754-1.836-5.508-3.366-8.262-5.202c-1.224-0.612-2.142,1.224-1.224,1.836
			c3.365,2.448,6.731,4.59,10.098,6.732c0.918,3.366,1.836,6.732,3.061,10.098c-3.979-2.754-7.956-5.508-12.24-7.956
			c-1.225-0.918-2.448,1.224-1.225,2.142c4.896,3.366,9.792,6.732,14.688,9.792c0.612,2.142,1.224,4.284,1.836,6.426
			c-2.142-1.53-3.979-2.754-6.12-4.284c-0.918-0.611-1.836,0.918-0.918,1.53c2.448,1.836,5.202,3.672,7.65,5.508
			c0.611,1.836,1.224,3.672,1.836,5.508c-3.672-2.447-7.65-4.896-11.322-7.649c-1.224-0.918-2.142,1.224-1.224,1.836
			c4.283,3.366,8.874,6.731,13.464,9.18c0.611,2.143,1.529,4.59,2.142,6.732c-4.284-2.448-8.262-4.59-12.24-7.344
			c-1.224-0.919-2.447,1.224-1.224,1.836c4.59,3.365,9.18,6.119,14.382,8.262c0.612,1.836,1.225,3.672,1.836,5.508
			c-3.978-2.448-8.262-4.896-12.24-7.65c-0.611-0.306-1.224,0.612-0.611,1.225c4.59,3.06,9.18,6.426,14.076,9.486
			c0.611,1.836,1.224,3.672,1.836,5.508c-4.284-2.448-9.181-4.896-13.158-7.65c-0.918-0.612-1.836,0.918-0.918,1.53
			c4.59,3.366,9.792,7.038,15.3,9.485c0.612,1.837,1.224,3.366,1.53,5.202c-1.225-0.918-2.754-1.529-3.979-2.447
			c-3.978-2.448-7.956-4.591-12.239-7.038c-1.225-0.612-2.448,1.224-1.225,1.836c3.979,2.142,8.262,4.59,12.24,7.038
			c2.142,1.224,4.284,2.754,6.426,4.283c0.612,1.837,1.224,3.979,1.836,5.814c-2.754-1.53-5.813-3.06-8.567-4.896
			c-0.918-0.611-1.53,0.919-0.918,1.53c3.365,2.143,6.731,3.979,10.098,5.814c0.612,2.447,1.53,4.896,2.142,7.344
			c-4.59-2.142-8.874-4.59-13.158-7.038c-0.918-0.612-1.529,0.612-0.611,1.224c4.59,3.061,9.18,5.814,14.382,7.956
			c0.612,2.755,1.53,5.202,2.142,7.956c-2.142-1.529-4.283-3.06-6.731-4.59c-1.225-0.918-2.448,1.225-1.225,2.143
			c3.061,2.142,5.814,4.283,8.874,6.426c0.307,1.224,0.612,2.448,0.918,3.672c0.307,0.612,0.307,1.224,0.612,2.142
			c-4.284-3.06-8.568-6.12-13.158-9.18c-1.224-0.918-2.142,0.918-1.224,1.836c4.896,3.672,9.792,7.344,14.994,10.71
			c0.611,2.448,1.224,4.896,1.836,7.344c-3.061-2.142-6.12-4.59-8.874-7.344c-0.612-0.612-1.53,0.306-0.918,0.918
			c3.06,3.366,6.731,6.732,10.404,9.486c0.611,3.672,1.529,7.344,2.142,10.71c-2.142-1.53-4.284-3.061-6.426-4.59
			c-1.53-0.918-2.754,1.529-1.53,2.447c3.06,1.837,5.814,4.284,8.568,6.427c0.611,2.754,0.918,5.508,1.529,8.567
			c-3.672-2.754-7.344-5.508-10.71-8.262c-1.224-0.918-2.754,0.612-1.529,1.53c3.978,3.366,8.262,6.731,12.852,9.792
			c0.306,1.53,0.612,3.366,0.612,4.896c-2.754-1.836-5.508-3.978-8.263-5.813c-0.918-0.612-1.836,0.918-1.224,1.53
			c3.06,2.754,6.426,5.201,9.792,7.955c0.306,2.143,0.306,3.979,0.612,6.12c-3.366-2.447-6.732-4.59-10.404-6.731
			c-0.918-0.612-1.836,0.918-0.918,1.529c3.672,2.755,7.344,5.509,11.322,7.956c0,1.837,0.306,3.673,0.306,5.509
			c-3.366-2.448-7.038-4.59-10.404-6.427C164.945,423.205,164.027,425.042,165.251,425.96z M401.177,190.646
			c3.06-2.142,6.12-4.59,9.18-7.038c2.142-1.836-0.306-6.12-3.06-4.896c-3.979,1.53-7.956,3.366-11.628,5.508
			c-0.612-0.612-0.918-1.53-1.53-2.142c4.59-2.142,9.485-4.59,13.77-7.956c2.448-1.836,1.225-7.038-2.447-5.508
			c-4.896,1.836-10.099,3.366-15.301,4.896c-0.918-2.142-1.529-4.284-2.142-6.732c6.426-0.918,12.546-2.142,18.972-3.672
			c2.143-0.612,1.53-3.672-0.611-3.978c-6.732-0.612-13.465-0.918-20.196-1.224c-4.284-28.764,2.754-65.178,11.934-85.374
			c0.307-0.306,0.307-0.918,0.307-1.224c1.836,2.448,3.978,4.896,5.813,7.038c3.061,3.672,6.426,7.65,9.486,11.322
			c-2.448,1.224-5.202,2.448-7.038,3.978c-5.202,3.366-0.612,11.628,4.896,8.568c9.181-5.202,18.973-7.956,29.683-7.956
			c8.874,0,16.83,3.978,25.704,4.59c3.672,0.306,4.896-4.284,2.754-6.732c-1.225-1.224-2.448-2.448-3.979-3.366
			c0.307-3.366,1.836-6.426,3.672-8.874c1.225-1.53,2.754-2.448,4.284-3.672c10.404,22.95,20.502,43.146,14.994,70.074
			c0,0.612-0.306,0.918-0.306,1.53c-6.732,1.53-13.771,3.06-20.196,4.896c-3.061,0.918-2.448,4.59,0,5.508
			c0.306,0.306,0.918,0.306,1.224,0.306h0.307c5.508-0.918,11.016-1.53,16.218-2.142c-0.612,2.142-1.53,4.284-2.448,6.426
			c-5.508-0.612-11.322-1.224-16.83-1.53c-3.672-0.306-4.59,5.814-0.918,6.732c4.59,0.918,9.18,1.836,14.076,2.754
			c-1.224,1.836-2.448,3.672-3.672,5.508c-3.979-0.612-7.956-1.224-11.628-1.53c-3.672-0.306-4.59,6.12-0.918,6.732
			c2.448,0.306,4.896,1.224,7.038,1.836c-6.732,7.344-14.994,12.852-25.093,15.606C424.739,203.804,410.663,200.132,401.177,190.646
			z M536.123,456.56c-0.918,2.448-3.365,3.978-5.813,4.59c-3.06,0.918-5.814-1.224-8.874,0c-0.612,0.307-1.224,0.612-1.53,0.918
			c0.612-1.836,0.918-3.978,0.918-5.508c0-13.158-11.016-22.338-23.256-22.644c12.546-49.572,1.224-109.854-28.151-151.164
			c-1.837-2.754-7.038-1.225-5.509,2.447c19.891,53.244,26.011,98.532,23.257,155.143c-0.307,3.978,3.978,5.202,6.731,3.366
			c7.344-0.307,16.218,5.508,15.3,13.77c-1.224,9.18-9.485,8.874-15.605,11.935v-0.307c-4.284-10.404-14.688-15.912-25.704-17.441
			c9.18-8.874,7.344-25.704,2.142-36.721c-6.731-13.77-23.868-29.069-40.086-25.397c-4.59,0.918-5.508,7.956-1.224,10.403
			c8.874,4.896,17.748,6.427,24.786,14.383c7.038,7.649,16.218,26.621,5.201,34.884c-0.918,0.611-1.529,1.529-1.529,2.448
			c-2.448,0.306-4.896,0.918-7.038,1.529c-5.508,1.836-4.59,10.099,1.53,10.404c9.18,0.612,18.359-2.143,26.621,3.366
			c5.814,3.978,8.874,14.076,3.673,18.666c-0.307,0-0.918-0.307-1.225-0.307c-29.069-1.836-76.806,7.65-94.859-17.441
			c1.224,0.918,2.142,1.836,3.672,2.448c0.918,0.611,1.836-0.919,0.918-1.53c-2.754-1.53-5.202-3.672-7.344-5.814
			c-1.225-2.448-2.143-5.202-2.755-8.262c3.061,2.448,5.814,5.202,9.181,7.038c0.611,0.612,1.53-0.612,0.918-1.224
			c-3.061-3.061-6.732-5.814-10.71-8.568c-0.307-1.836-0.307-3.979-0.612-5.814c3.061,2.448,5.814,4.591,9.18,6.427
			c0.918,0.306,1.53-0.612,0.612-1.225c-3.366-2.447-7.038-4.896-10.098-7.649c0-1.225,0-2.754,0-4.284
			c3.672,3.06,7.038,6.12,11.016,8.874c0.918,0.612,1.53-0.612,0.918-1.224c-3.672-3.673-7.649-6.732-11.934-9.793
			c0-0.918,0-1.836,0-3.06l0,0c3.978,3.06,8.567,5.814,13.158,7.038c0.918,0.306,1.224-0.918,0.611-1.53
			c-4.284-3.06-8.874-5.202-13.464-8.262c0.306-1.836,0.612-3.672,1.224-5.508c3.061,2.448,6.427,4.896,10.099,6.731
			c1.224,0.612,2.448-1.224,1.224-1.836c-3.672-2.447-7.344-5.202-10.71-7.649c0.307-1.225,0.918-2.754,1.225-3.979
			c3.672,3.061,7.649,5.814,11.934,7.344c1.224,0.307,1.836-1.224,0.918-1.836c-3.978-2.754-8.262-4.896-11.934-7.956
			c0.611-2.142,1.529-4.59,2.447-6.731c1.225,1.224,2.448,2.142,3.979,3.366c2.448,1.836,5.202,4.59,8.262,4.896
			c0.612,0,1.224-0.306,1.53-0.918c0,0,0-0.306,0.306-0.306c0-0.307,0-0.612-0.306-0.918l-0.307-0.307
			c-0.611-0.611-1.529,0-1.529,0.612c0-1.53-0.918-1.53-2.448-2.754c-1.224-0.918-2.448-1.836-3.978-2.754
			c-1.53-1.224-3.061-2.448-4.284-3.672c0.306-0.918,0.918-1.836,1.224-3.061c3.672,2.448,7.038,4.896,10.71,7.038
			c0.918,0.612,2.142-0.918,1.224-1.529c-3.365-2.755-7.344-5.202-11.016-7.65c0.306-0.918,0.918-1.836,1.224-2.448
			c3.061,2.143,6.12,4.284,9.181,6.732c0.918,0.918,2.142-0.612,1.529-1.53c-2.754-3.06-6.119-5.508-9.485-7.65
			c0.611-1.224,0.918-2.142,1.529-3.365c3.061,2.142,6.427,4.283,9.486,6.119c0.918,0.612,2.448-0.918,1.224-1.836
			c-3.06-2.754-6.426-4.896-10.098-6.731c1.225-2.754,2.448-5.202,3.672-7.956c3.672,2.448,7.65,4.59,11.935,5.508
			c0.918,0.306,1.529-1.224,0.611-1.53c-3.672-2.142-7.649-3.978-11.628-6.12c0.918-2.142,1.836-3.978,2.754-6.119
			c2.754,2.142,5.509,3.978,8.568,4.896c0.918,0.306,1.224-0.918,0.612-1.224c-2.754-2.143-5.509-3.672-8.263-5.508
			c0.612-1.53,1.53-3.366,2.143-4.896c1.529,1.53,2.754,3.06,4.284,4.284c1.529,1.53,2.447,2.448,4.283,2.754
			c0.612,0,0.918-0.306,1.225-0.918c0-0.307,0-0.307,0.306-0.612c0.306-0.612-0.612-1.224-0.918-0.918
			c-1.224,0.306-5.202-4.284-6.12-5.202c-0.612-0.611-1.224-1.224-1.836-1.836c0.612-1.224,0.918-2.754,1.53-3.978
			c2.754,2.754,5.813,4.896,9.18,6.426c0.918,0.306,1.53-1.224,0.612-1.53c-3.366-2.142-6.426-4.284-9.181-7.038
			c0.612-1.836,1.225-3.672,1.837-5.202c3.06,2.755,6.426,5.509,10.098,7.038c1.224,0.612,2.142-0.918,0.918-1.836
			c-3.672-2.447-7.038-4.59-10.098-7.649c0.306-1.225,0.918-2.448,1.529-3.979c0,0,0,0,0-0.306c2.754,2.142,5.814,3.978,9.486,5.202
			c0.918,0.306,1.53-0.918,0.918-1.53c-3.06-2.448-6.12-4.59-9.486-7.038c0.307-0.918,0.307-1.836,0.612-2.754
			c2.754,2.142,5.508,4.284,8.568,5.814c0.918,0.611,1.836-0.612,1.224-1.53c-2.754-2.448-6.12-4.59-9.18-6.732
			c0.306-1.224,0.611-2.447,0.918-3.672c2.754,2.143,5.813,4.284,8.567,6.12c1.225,0.918,2.754-1.224,1.53-2.142
			c-3.06-2.448-6.426-4.896-9.792-7.038c0.612-2.143,0.918-4.284,1.225-6.427c3.365,2.755,7.037,4.896,11.016,6.12
			c0.918,0.307,1.53-0.918,0.612-1.529c-3.979-2.143-7.65-4.284-11.322-6.732c0.306-2.142,0.612-3.978,0.918-6.12
			c2.754,2.143,5.508,4.284,8.568,5.814c1.224,0.611,2.142-0.612,1.836-1.836c-0.612-1.225-0.612-1.225-1.53-2.143
			c-0.306-0.306-0.918-0.306-1.224,0c-2.448-1.836-4.591-3.365-7.038-4.896c0.306-1.836,0.611-3.672,0.611-5.508
			c2.754,3.06,6.12,5.813,9.792,7.344c0.918,0.306,1.53-1.225,0.612-1.53c-3.979-2.448-7.344-4.896-10.404-7.956
			c0.307-2.142,0.307-3.978,0.612-6.12c3.06,3.366,6.426,6.427,10.098,8.568c0.918,0.612,2.143-0.918,1.225-1.53
			c-3.672-3.672-7.65-6.731-11.017-10.098c0-1.53,0.307-3.061,0.307-4.59c3.365,3.365,7.038,6.426,10.71,8.874
			c0.918,0.611,2.142-0.918,1.224-1.53c-3.978-3.366-7.956-6.426-11.934-9.792c0-1.836,0.306-3.979,0.306-5.814
			c2.754,3.061,5.814,5.509,9.486,7.345c1.224,0.611,2.142-0.918,1.224-1.836c-3.672-2.754-7.344-5.509-10.404-8.568
			c0-1.53,0-3.06,0-4.896c3.061,3.673,7.038,6.732,11.017,7.956c0.918,0.307,1.53-0.918,0.918-1.529
			c-2.143-2.143-4.896-3.672-7.344-5.814c-1.837-1.53-3.366-3.365-4.896-5.201c0-2.142-0.306-4.59-0.306-6.732
			c3.365,3.366,7.038,6.426,10.71,7.956c0.918,0.306,1.836-0.918,1.224-1.53c-2.142-2.754-4.896-4.59-7.65-6.732
			c-1.529-1.53-3.06-3.06-4.59-4.59c0-2.142-0.306-4.284-0.611-6.12c2.754,3.06,5.813,5.814,9.18,8.262
			c0.918,0.612,2.142-0.918,1.224-1.836c-3.672-3.366-7.344-6.732-10.71-10.404c-0.306-1.836-0.306-3.672-0.611-5.508
			c3.06,3.366,6.426,6.426,10.098,8.874c0.918,0.612,2.142-0.918,1.224-1.53c-3.978-3.978-7.956-7.344-11.934-11.322
			c-0.306-2.142-0.918-4.284-1.224-6.732c2.447,2.142,4.896,4.59,7.649,6.426c0.918,0.612,1.836-0.918,1.225-1.53
			c-3.061-3.06-6.12-5.814-9.486-8.874c-0.306-2.142-0.918-4.284-1.53-6.426c3.061,2.142,6.12,4.284,9.486,6.426
			c1.224,0.612,2.142-1.224,1.224-1.836c-3.978-2.448-7.649-5.202-11.322-7.956c-0.611-3.06-1.529-5.814-2.447-8.874
			c3.978,3.366,8.262,6.426,12.546,9.486c1.224,0.918,2.754-0.918,1.53-2.142c-2.755-2.448-5.814-4.896-8.874-7.344
			c1.836,0.306,3.978,0.612,5.813,0.918c3.061,2.448,5.814,4.896,9.18,7.344c1.225,0.918,2.755-1.224,1.837-2.142
			c-1.837-1.836-3.673-3.366-5.509-4.59c4.284,0.306,8.874,0,13.771-0.612c4.59-0.612,8.567-1.53,12.546-3.06
			c45.899,68.849,70.686,147.492,62.729,230.723c-0.306,2.754,2.143,3.672,4.284,3.366c0.918,1.224,2.448,2.142,4.59,1.53
			C531.533,444.932,538.571,450.745,536.123,456.56z"/>
		<path d="M241.139,109.25c-6.12-2.448-14.382-0.612-17.442,5.814c-0.611,1.53-1.529,3.06-2.142,4.59
			c-3.672-2.448-7.956-3.366-11.934-0.918c-3.672,2.142-6.732,7.956-4.896,12.24c3.366,8.262,8.568,15.3,14.382,22.338
			c3.061,3.672,9.181,4.896,13.464,3.672c5.202-1.53,7.956-5.202,9.792-9.792c2.755-6.732,5.814-14.076,7.038-21.114
			C250.625,119.042,247.872,112.31,241.139,109.25z"/>
		<path d="M298.667,65.492c-7.345-1.53-13.465,1.53-16.83,7.65c-7.038-8.262-21.727-1.836-18.972,9.792
			c2.142,9.18,7.344,16.83,11.628,25.398c2.447,4.896,8.873,7.65,14.075,6.732c5.814-0.918,9.792-4.896,11.935-10.098
			c2.754-7.038,5.508-14.382,8.262-21.42C311.519,76.202,305.705,67.022,298.667,65.492z"/>
		<path d="M300.503,151.784c-3.979-0.612-7.956,1.53-10.099,5.202c-0.306-0.306-0.306-0.306-0.611-0.612
			c-2.143-2.754-5.509-4.59-8.874-3.06c-3.061,1.224-5.509,5.202-4.284,8.568c2.448,7.038,6.12,12.852,11.321,18.054
			c4.591,4.896,11.629,3.06,14.994-1.836c3.366-4.896,5.202-10.71,5.814-16.524C309.683,156.68,305.093,152.09,300.503,151.784z"/>
		<path d="M208.704,33.974c-2.754,1.224-5.202,3.672-7.038,6.732c-1.225-0.918-2.448-1.836-3.672-2.448
			c-6.427-3.978-11.629,4.59-7.65,9.792c3.06,3.672,6.426,7.344,8.568,11.934c3.365,7.65,16.523,5.508,18.359-2.448
			c0.307-1.53,0.612-3.672,1.225-4.896c0.918-1.836,2.754-3.366,3.672-5.202C226.757,38.258,217.578,29.996,208.704,33.974z"/>
	</g>
</g>
<g>
</g>
<g>
</g>
<g>
</g>
<g>
</g>
<g>
</g>
<g>
</g>
<g>
</g>
<g>
</g>
<g>
</g>
<g>
</g>
<g>
</g>
<g>
</g>
<g>
</g>
<g>
</g>
<g>
</g>
</svg>
